<svg xmlns="http://www.w3.org/2000/svg" viewBox="0 0 600 600" width="600" height="600" role="img" aria-label="My Cat Pixel placeholder">
  <rect width="600" height="600" fill="#fff4d6"/>
  <ellipse cx="300" cy="430" rx="150" ry="120" fill="#ff9e3d"/>
  <circle cx="300" cy="270" r="120" fill="#ffb347"/>
  <polygon points="200,200 180,90 270,170" fill="#ffb347"/>
  <polygon points="400,200 420,90 330,170" fill="#ffb347"/>
  <polygon points="205,185 195,125 250,170" fill="#ff7e6b"/>
  <polygon points="395,185 405,125 350,170" fill="#ff7e6b"/>
  <circle cx="255" cy="270" r="22" fill="#fff"/>
  <circle cx="345" cy="270" r="22" fill="#fff"/>
  <circle cx="255" cy="272" r="11" fill="#2c2c2c"/>
  <circle cx="345" cy="272" r="11" fill="#2c2c2c"/>
  <polygon points="285,300 315,300 300,318" fill="#ff7e6b"/>
  <line x1="180" y1="305" x2="250" y2="305" stroke="#7a4a25" stroke-width="4"/>
  <line x1="350" y1="305" x2="420" y2="305" stroke="#7a4a25" stroke-width="4"/>
  <text x="300" y="560" font-family="Comic Sans MS, Arial, sans-serif" font-size="32" fill="#a85a12" text-anchor="middle" font-weight="bold">My Cat Pixel</text>
</svg>
