<svg xmlns="http://www.w3.org/2000/svg" viewBox="0 0 800 500" width="800" height="500" role="img" aria-label="Sky Dragon placeholder">
  <defs>
    <linearGradient id="sky" x1="0" y1="0" x2="0" y2="1">
      <stop offset="0" stop-color="#7ec8ff"/>
      <stop offset="1" stop-color="#cdeafe"/>
    </linearGradient>
  </defs>
  <rect width="800" height="500" fill="url(#sky)"/>
  <circle cx="650" cy="110" r="60" fill="#fff3a8"/>
  <ellipse cx="180" cy="120" rx="70" ry="28" fill="#ffffff" opacity="0.85"/>
  <ellipse cx="500" cy="80" rx="90" ry="32" fill="#ffffff" opacity="0.8"/>
  <path d="M150 320 q120 -120 250 -40 q60 -90 160 -20 q-40 70 -160 60 q-110 70 -250 30 q40 -30 0 -30 z" fill="#e0563b"/>
  <path d="M400 280 l70 -70 l10 60 z" fill="#c8442c"/>
  <circle cx="200" cy="300" r="10" fill="#fff"/>
  <circle cx="200" cy="300" r="5" fill="#222"/>
  <path d="M150 320 l-40 20 l30 -40 z" fill="#e0563b"/>
  <text x="400" y="460" font-family="Comic Sans MS, Arial, sans-serif" font-size="34" fill="#1c3d5a" text-anchor="middle" font-weight="bold">Sky Dragon</text>
</svg>
