<svg xmlns="http://www.w3.org/2000/svg" viewBox="0 0 900 400" width="900" height="400" role="img" aria-label="Space Whale placeholder">
  <defs>
    <linearGradient id="space" x1="0" y1="0" x2="1" y2="1">
      <stop offset="0" stop-color="#1a1452"/>
      <stop offset="1" stop-color="#4b2a7a"/>
    </linearGradient>
  </defs>
  <rect width="900" height="400" fill="url(#space)"/>
  <g fill="#fff">
    <circle cx="80" cy="60" r="3"/><circle cx="200" cy="120" r="2"/><circle cx="350" cy="50" r="3"/>
    <circle cx="500" cy="90" r="2"/><circle cx="680" cy="40" r="3"/><circle cx="820" cy="130" r="2"/>
    <circle cx="760" cy="300" r="2"/><circle cx="120" cy="330" r="3"/><circle cx="600" cy="350" r="2"/>
  </g>
  <ellipse cx="450" cy="220" rx="200" ry="90" fill="#5fb6d4"/>
  <path d="M250 220 l-70 -40 l10 80 z" fill="#4a98b4"/>
  <ellipse cx="430" cy="250" rx="150" ry="50" fill="#bfe9f5"/>
  <circle cx="600" cy="190" r="12" fill="#fff"/>
  <circle cx="603" cy="190" r="6" fill="#222"/>
  <path d="M520 130 q20 -50 40 0" stroke="#bfe9f5" stroke-width="6" fill="none"/>
  <text x="450" y="375" font-family="Comic Sans MS, Arial, sans-serif" font-size="32" fill="#ffe28a" text-anchor="middle" font-weight="bold">Space Whale</text>
</svg>
