<svg xmlns="http://www.w3.org/2000/svg" viewBox="0 0 550 750" width="550" height="750" role="img" aria-label="Volcano placeholder">
  <defs>
    <linearGradient id="vsky" x1="0" y1="0" x2="0" y2="1">
      <stop offset="0" stop-color="#ff9a5a"/>
      <stop offset="1" stop-color="#ffd9a0"/>
    </linearGradient>
  </defs>
  <rect width="550" height="750" fill="url(#vsky)"/>
  <circle cx="430" cy="140" r="50" fill="#fff2c0"/>
  <polygon points="275,300 80,650 470,650" fill="#5a4636"/>
  <polygon points="275,300 200,500 350,500" fill="#6e5743"/>
  <ellipse cx="275" cy="300" rx="60" ry="20" fill="#3a2c22"/>
  <path d="M230 300 q10 -90 -10 -150 q40 60 30 110 q30 -60 20 -130 q40 70 10 150 q30 -50 40 -110 q20 80 -20 130 z" fill="#ff5630"/>
  <path d="M245 300 q5 -50 -5 -90 q25 40 20 80 z" fill="#ffd23f"/>
  <circle cx="200" cy="180" r="8" fill="#ff7a30"/>
  <circle cx="360" cy="200" r="10" fill="#ff5630"/>
  <text x="275" y="710" font-family="Comic Sans MS, Arial, sans-serif" font-size="32" fill="#5a2410" text-anchor="middle" font-weight="bold">Volcano</text>
</svg>
